<svg xmlns="http://www.w3.org/2000/svg" version="1.1" xmlns:xlink="http://www.w3.org/1999/xlink" xmlns:svgjs="http://svgjs.com/svgjs" width="1440" height="560" preserveAspectRatio="none" viewBox="0 0 1440 560"><g mask="url(&quot;#SvgjsMask1004&quot;)" fill="none"><rect width="1440" height="560" x="0" y="0" fill="rgba(46, 52, 64, 1)"></rect><path d="M0,294.631C73.769,301.479,144.79,359.121,214.274,333.417C285.143,307.2,343.018,237.14,356.432,162.777C369.512,90.263,307.311,28.592,281.723,-40.506C262.326,-92.887,258.911,-150.509,224.209,-194.278C188.603,-239.187,136.685,-264.481,84.817,-288.859C24.493,-317.212,-35.577,-352.207,-102.075,-347.635C-176.061,-342.548,-248.896,-313.346,-302.621,-262.223C-358.959,-208.613,-407.656,-136.133,-406.051,-58.381C-404.486,17.411,-333.884,69.729,-294.431,134.462C-260.405,190.29,-247.578,264.629,-190.146,295.872C-133.317,326.786,-64.416,288.651,0,294.631" fill="#232730"></path><path d="M1440 1061.78C1535.363 1070.906 1637.27 1042.0729999999999 1709.001 978.5740000000001 1777.555 917.887 1769.042 810.565 1813.926 730.766 1864.769 640.372 1981.882 584.572 1988.813 481.093 1995.838 376.20799999999997 1915.4569999999999 287.041 1849.105 205.50799999999998 1781.0520000000001 121.88400000000001 1709.275 21.668999999999983 1602.54 6.4389999999999645 1496.777-8.652000000000044 1416.019 99.12799999999999 1313.47 129.07999999999998 1210.702 159.096 1068.077 96.34300000000002 1003.1859999999999 181.498 937.058 268.277 1026.21 392.01599999999996 1030.016 501.053 1032.976 585.874 991.434 671.65 1023.0419999999999 750.418 1055.186 830.523 1133.012 878.425 1202.171 930.069 1276.283 985.4110000000001 1347.926 1052.968 1440 1061.78" fill="#3a4150"></path></g><defs><mask id="SvgjsMask1004"><rect width="1440" height="560" fill="#ffffff"></rect></mask></defs></svg>